<svg width="41" height="41" viewBox="0 0 41 41" fill="none" xmlns="http://www.w3.org/2000/svg">
<g clip-path="url(#clip0_2607_6478)">
<path d="M41 20.6257C41 9.23281 31.8211 -0.00244141 20.5 -0.00244141C9.17375 0.000121094 -0.00512695 9.23281 -0.00512695 20.6282C-0.00512695 30.9218 7.49275 39.4549 17.2917 41.0027V26.5886H12.0899V20.6282H17.2969V16.0798C17.2969 10.9112 20.3591 8.05662 25.0407 8.05662C27.2855 8.05662 29.6302 8.45893 29.6302 8.45893V13.5327H27.0446C24.5001 13.5327 23.7057 15.124 23.7057 16.7563V20.6257H29.3893L28.4822 26.5861H23.7031V41.0001C33.5021 39.4524 41 30.9192 41 20.6257Z" fill="#808080"/>
</g>
<defs>
<clipPath id="clip0_2607_6478">
<rect width="41" height="41" fill="white"/>
</clipPath>
</defs>
</svg>
