<svg width="41" height="41" viewBox="0 0 41 41" fill="none" xmlns="http://www.w3.org/2000/svg">
<path fill-rule="evenodd" clip-rule="evenodd" d="M20.5 0C9.17717 0 0 9.17888 0 20.5C0 31.8211 9.17717 41 20.5 41C31.8211 41 41 31.8211 41 20.5C41 9.17888 31.8211 0 20.5 0ZM20.7392 32.4891C14.1313 32.4891 8.78083 27.1249 8.78083 20.5C8.78083 13.8751 14.1313 8.51092 20.7392 8.51092C23.9679 8.51092 26.6671 9.70162 28.7376 11.6355L25.3653 15.0145V15.0077C24.1097 13.8085 22.5175 13.1935 20.7392 13.1935C16.7929 13.1935 13.5864 16.535 13.5864 20.4932C13.5864 24.448 16.7929 27.7997 20.7392 27.7997C24.3198 27.7997 26.7559 25.7463 27.2582 22.9275H20.7392V18.2518H31.9885C32.1389 19.0548 32.2192 19.8918 32.2192 20.7699C32.2192 27.6203 27.646 32.4891 20.7392 32.4891Z" fill="#808080"/>
</svg>
